<svg xmlns="http://www.w3.org/2000/svg" viewBox="0 0 72 72" id="emoji">
  <g id="line">
    <path d="M5,19c0-1.1045,0.8955-2,2-2h58c1.1045,0,2,0.8955,2,2v34c0,1.1045-0.8955,2-2,2H7c-1.1045,0-2-0.8955-2-2V19z" stroke-width="2" stroke-miterlimit="10" stroke-linejoin="round" stroke-linecap="round" stroke="rgba(211,211,211,.5)" fill="rgba(211,211,211,.5)"></path>
    <line stroke-width="2" stroke-miterlimit="10" stroke-linejoin="round" stroke-linecap="round" stroke="rgba(211,211,211,.5)" fill="rgba(211,211,211,.5)" y2="55" y1="17" x2="27" x1="27"></line>
    <line stroke-width="2" stroke-miterlimit="10" stroke-linejoin="round" stroke-linecap="round" stroke="rgba(211,211,211,.5)" fill="rgba(211,211,211,.5)" y2="34" y1="34" x2="67" x1="27"></line>
    <path d="M17.6064,43.2129c5.8575-5.8574,5.8575-15.355,0-21.2129H14c-5.8574,5.8579-5.8574,15.3555,0,21.2129H17.6064z" stroke-width="2" stroke-miterlimit="10" stroke-linejoin="round" stroke-linecap="round" stroke="rgba(211,211,211,.5)" fill="rgba(211,211,211,.5)"></path>
    <line stroke-width="2" stroke-miterlimit="10" stroke-linejoin="round" stroke-linecap="round" stroke="rgba(211,211,211,.5)" fill="rgba(211,211,211,.5)" y2="28" y1="28" x2="21" x1="11"></line>
    <polyline points="13,42.2129 12,51 16,47 16,47 20,51 18.6064,42.2129" stroke-width="2" stroke-miterlimit="10" stroke-linejoin="round" stroke-linecap="round" stroke="rgba(211,211,211,.5)" fill="rgba(211,211,211,.5)"></polyline>
    <path d="M39,40c0-1.1045-0.8955-2-2-2h-4c-1.1045,0-2,0.8955-2,2v9c0,1.1045,0.8955,2,2,2h4c1.1045,0,2-0.8955,2-2V40z" stroke-width="2" stroke-miterlimit="10" stroke-linejoin="round" stroke-linecap="round" stroke="rgba(211,211,211,.5)" fill="rgba(211,211,211,.5)"></path>
    <path d="M51,40c0-1.1045-0.8955-2-2-2h-4c-1.1045,0-2,0.8955-2,2v9c0,1.1045,0.8955,2,2,2h4c1.1045,0,2-0.8955,2-2V40z" stroke-width="2" stroke-miterlimit="10" stroke-linejoin="round" stroke-linecap="round" stroke="rgba(211,211,211,.5)" fill="rgba(211,211,211,.5)"></path>
    <path d="M63,40c0-1.1045-0.8955-2-2-2h-4c-1.1045,0-2,0.8955-2,2v9c0,1.1045,0.8955,2,2,2h4c1.1045,0,2-0.8955,2-2V40z" stroke-width="2" stroke-miterlimit="10" stroke-linejoin="round" stroke-linecap="round" stroke="rgba(211,211,211,.5)" fill="rgba(211,211,211,.5)"></path>
    <path d="M44,21c1.9521,1.9521,1.9521,5.1182,0,7.0713c-1.9521,1.9531-5.1182,1.9531-7.0713,0L44,21z" stroke-width="2" stroke-miterlimit="10" stroke-linejoin="round" stroke-linecap="round" stroke="rgba(211,211,211,.5)" fill="rgba(211,211,211,.5)"></path>
    <path d="M56.5361,21c1.9522,1.9521,1.9522,5.1182,0,7.0713c-1.9531,1.9531-5.1191,1.9531-7.0722,0L56.5361,21z" stroke-width="2" stroke-miterlimit="10" stroke-linejoin="round" stroke-linecap="round" stroke="rgba(211,211,211,.5)" fill="rgba(211,211,211,.5)"></path>
    <path d="M39,44.334c0,1.1035-0.8955,2-2,2" stroke-width="2" stroke-miterlimit="10" stroke-linejoin="round" stroke-linecap="round" stroke="rgba(211,211,211,.5)" fill="rgba(211,211,211,.5)"></path>
    <path d="M39,40c0,1.1045-0.8955,2-2,2" stroke-width="2" stroke-miterlimit="10" stroke-linejoin="round" stroke-linecap="round" stroke="rgba(211,211,211,.5)" fill="rgba(211,211,211,.5)"></path>
    <path d="M51,44.334c0,1.1035-0.8955,2-2,2" stroke-width="2" stroke-miterlimit="10" stroke-linejoin="round" stroke-linecap="round" stroke="rgba(211,211,211,.5)" fill="rgba(211,211,211,.5)"></path>
    <path d="M51,40c0,1.1045-0.8955,2-2,2" stroke-width="2" stroke-miterlimit="10" stroke-linejoin="round" stroke-linecap="round" stroke="rgba(211,211,211,.5)" fill="rgba(211,211,211,.5)"></path>
    <path d="M63,44.334c0,1.1035-0.8955,2-2,2" stroke-width="2" stroke-miterlimit="10" stroke-linejoin="round" stroke-linecap="round" stroke="rgba(211,211,211,.5)" fill="rgba(211,211,211,.5)"></path>
    <path d="M63,40c0,1.1045-0.8955,2-2,2" stroke-width="2" stroke-miterlimit="10" stroke-linejoin="round" stroke-linecap="round" stroke="rgba(211,211,211,.5)" fill="rgba(211,211,211,.5)"></path>
  </g>
</svg>
