<svg xmlns="http://www.w3.org/2000/svg" viewBox="0 0 72 72" id="emoji">
  <g id="line">
    <path d="m52.55,23.75c0,3.985-1.785,5.908-3.754,10.5-.5028,1.172-4.211,13.38-4.211,13.38h-17.17s-2.981-11.67-3.546-12.62c-2.37-3.998-4.419-6.91-4.419-11.26,0-9.141,7.41-16.55,16.55-16.55s16.55,7.41,16.55,16.55Z" stroke-width="1.2" stroke-linejoin="round" stroke-linecap="round" stroke="rgba(211,211,211,.5)" fill="rgba(211,211,211,.25)"></path>
    <line stroke-width="1.2" stroke-linejoin="round" stroke-linecap="round" stroke="rgba(211,211,211,.5)" fill="rgba(211,211,211,.25)" y2="35.28" y1="47.22" x2="36" x1="36"></line>
    <line stroke-width="1.2" stroke-linejoin="round" stroke-linecap="round" stroke="rgba(211,211,211,.5)" fill="rgba(211,211,211,.25)" y2="35.28" y1="35.28" x2="30.03" x1="41.97"></line>
    <path d="m44.16,58.79c0,3.24-3.651,5.867-8.155,5.867s-8.155-2.627-8.155-5.867h16.31Z" stroke-width="1.696" stroke-linejoin="round" stroke-linecap="round" stroke="rgba(211,211,211,.5)" fill="rgba(211,211,211,.25)"></path>
    <line stroke-width="1.965" stroke-linejoin="round" stroke-linecap="round" stroke="rgba(211,211,211,.5)" fill="rgba(211,211,211,.25)" y2="51.51" y1="54.98" x2="44.01" x1="27.99"></line>
    <line stroke-width="1.2" stroke-linejoin="round" stroke-linecap="round" stroke="rgba(211,211,211,.5)" fill="rgba(211,211,211,.25)" y2="54.89" y1="56.07" x2="43.98" x1="38.2"></line>
    <line stroke-width="1.2" stroke-linejoin="round" stroke-linecap="round" stroke="rgba(211,211,211,.5)" fill="rgba(211,211,211,.25)" y2="50.42" y1="51.6" x2="33.8" x1="28.02"></line>
  </g>
</svg>
