<svg version="1.0" preserveAspectRatio="xMidYMid meet" height="300" viewBox="0 0 224.87999 225" zoomAndPan="magnify" width="300" xmlns:xlink="http://www.w3.org/1999/xlink" xmlns="http://www.w3.org/2000/svg"><defs><clipPath id="ee3c191f53"><path clip-rule="nonzero" d="M 28 42 L 189 42 L 189 224.9375 L 28 224.9375 Z M 28 42"></path></clipPath><clipPath id="242319d702"><path clip-rule="nonzero" d="M 108 0.0585938 L 116 0.0585938 L 116 30 L 108 30 Z M 108 0.0585938"></path></clipPath></defs><g clip-path="url(#ee3c191f53)"><path fill-rule="nonzero" fill-opacity="1" d="M 135.074219 45.855469 C 108.0625 36 62.292969 48.132812 49.371094 75.824219 C 43.113281 89.226562 43.625 98.996094 44.117188 108.449219 C 44.410156 114.039062 44.6875 119.320312 43.675781 125.539062 C 43.308594 127.789062 39.738281 132.214844 36.867188 135.769531 C 31.503906 142.414062 26.871094 148.15625 29.175781 153.253906 C 31.3125 157.972656 37.015625 159.117188 40.785156 159.878906 C 41.753906 160.074219 43.082031 160.339844 43.460938 160.523438 C 48.152344 163 48.199219 164.074219 47.867188 165.90625 C 46.976562 170.800781 46.304688 186.246094 54.597656 192.816406 C 59.207031 196.46875 64.863281 196.246094 69.863281 196.058594 C 72.457031 195.96875 74.90625 195.867188 76.90625 196.308594 C 90.480469 199.300781 86.449219 220.019531 86.40625 220.265625 C 86.0625 222.265625 87.402344 224.171875 89.402344 224.515625 C 91.410156 224.890625 93.300781 223.523438 93.648438 221.527344 C 93.871094 220.238281 98.902344 193.621094 78.484375 189.121094 C 75.566406 188.476562 72.523438 188.59375 69.578125 188.707031 C 65.496094 188.855469 61.640625 189.015625 59.15625 187.046875 C 54.84375 183.628906 54.019531 173.15625 55.097656 167.222656 C 56.566406 159.121094 50.269531 155.796875 46.886719 154.011719 C 45.628906 153.34375 44.054688 153.03125 42.234375 152.664062 C 40.214844 152.257812 36.453125 151.5 35.9375 150.449219 C 35.871094 148.714844 40.074219 143.507812 42.585938 140.398438 C 46.527344 135.515625 50.25 130.902344 50.929688 126.726562 C 52.066406 119.726562 51.761719 113.796875 51.460938 108.0625 C 50.992188 99.121094 50.550781 90.675781 56.027344 78.941406 C 67.140625 55.136719 108.558594 44.019531 132.558594 52.773438 C 165.0625 64.636719 182.644531 90.546875 180.789062 123.859375 C 179.785156 141.957031 163.835938 164.726562 154.3125 178.328125 C 149.617188 185.03125 147.328125 188.359375 146.59375 190.667969 C 142.757812 202.820312 145.019531 220.394531 145.117188 221.292969 C 145.324219 223.179688 146.914062 224.574219 148.765625 224.574219 C 148.898438 224.574219 149.035156 224.566406 149.167969 224.550781 C 151.1875 224.332031 152.644531 222.515625 152.425781 220.496094 C 152.402344 220.289062 150.234375 203.5625 153.601562 192.890625 C 154.027344 191.554688 157.375 186.777344 160.328125 182.554688 C 170.308594 168.308594 187.003906 144.464844 188.128906 124.269531 C 190.175781 87.488281 170.839844 58.910156 135.074219 45.855469 Z M 135.074219 45.855469" fill="#000000"></path></g><g clip-path="url(#242319d702)"><path fill-rule="nonzero" fill-opacity="1" d="M 112.300781 29.855469 C 114.328125 29.855469 115.976562 28.207031 115.976562 26.175781 L 115.976562 3.742188 C 115.976562 1.707031 114.328125 0.0585938 112.300781 0.0585938 C 110.269531 0.0585938 108.625 1.707031 108.625 3.742188 L 108.625 26.175781 C 108.625 28.207031 110.269531 29.855469 112.300781 29.855469 Z M 112.300781 29.855469" fill="#000000"></path></g><path fill-rule="nonzero" fill-opacity="1" d="M 140.984375 35.695312 C 141.523438 35.972656 142.101562 36.105469 142.671875 36.105469 C 144 36.105469 145.285156 35.382812 145.9375 34.121094 L 156.277344 14.175781 C 157.210938 12.371094 156.507812 10.148438 154.707031 9.210938 C 152.910156 8.277344 150.6875 8.980469 149.753906 10.785156 L 139.414062 30.730469 C 138.480469 32.535156 139.183594 34.757812 140.984375 35.695312 Z M 140.984375 35.695312" fill="#000000"></path><path fill-rule="nonzero" fill-opacity="1" d="M 168.363281 50.390625 C 169.164062 50.390625 169.96875 50.128906 170.644531 49.59375 L 188.609375 35.308594 C 190.195312 34.042969 190.460938 31.730469 189.199219 30.136719 C 187.9375 28.542969 185.621094 28.28125 184.035156 29.542969 L 166.074219 43.828125 C 164.484375 45.09375 164.21875 47.40625 165.480469 49 C 166.207031 49.914062 167.28125 50.390625 168.363281 50.390625 Z M 168.363281 50.390625" fill="#000000"></path><path fill-rule="nonzero" fill-opacity="1" d="M 209.410156 62.492188 C 208.808594 60.546875 206.746094 59.460938 204.816406 60.054688 L 182.597656 66.894531 C 180.65625 67.496094 179.570312 69.554688 180.164062 71.496094 C 180.652344 73.078125 182.105469 74.097656 183.675781 74.097656 C 184.035156 74.097656 184.398438 74.042969 184.757812 73.933594 L 206.976562 67.09375 C 208.914062 66.496094 210.003906 64.433594 209.410156 62.492188 Z M 209.410156 62.492188" fill="#000000"></path><path fill-rule="nonzero" fill-opacity="1" d="M 78.664062 34.125 C 79.320312 35.382812 80.601562 36.105469 81.929688 36.105469 C 82.5 36.105469 83.078125 35.972656 83.621094 35.695312 C 85.421875 34.753906 86.125 32.535156 85.1875 30.730469 L 74.847656 10.785156 C 73.910156 8.980469 71.695312 8.28125 69.890625 9.210938 C 68.089844 10.152344 67.386719 12.371094 68.320312 14.175781 Z M 78.664062 34.125" fill="#000000"></path><path fill-rule="nonzero" fill-opacity="1" d="M 53.957031 49.59375 C 54.632812 50.128906 55.4375 50.390625 56.242188 50.390625 C 57.324219 50.390625 58.394531 49.914062 59.121094 48.996094 C 60.382812 47.40625 60.117188 45.089844 58.527344 43.828125 L 40.5625 29.542969 C 38.976562 28.28125 36.660156 28.542969 35.398438 30.140625 C 34.136719 31.730469 34.402344 34.046875 35.992188 35.308594 Z M 53.957031 49.59375" fill="#000000"></path><path fill-rule="nonzero" fill-opacity="1" d="M 40.925781 74.097656 C 42.496094 74.097656 43.953125 73.078125 44.4375 71.496094 C 45.035156 69.554688 43.945312 67.496094 42.003906 66.894531 L 19.785156 60.054688 C 17.84375 59.460938 15.785156 60.546875 15.191406 62.492188 C 14.59375 64.433594 15.683594 66.496094 17.625 67.09375 L 39.84375 73.933594 C 40.203125 74.042969 40.566406 74.097656 40.925781 74.097656 Z M 40.925781 74.097656" fill="#000000"></path><path fill-rule="nonzero" fill-opacity="1" d="M 160.347656 120.195312 C 163.300781 119.023438 165.820312 116.902344 167.621094 113.941406 C 171.152344 108.132812 170.917969 100.671875 167.042969 95.792969 C 163.8125 91.71875 159.996094 90.832031 156.496094 90.859375 C 156.796875 86.78125 155.210938 82.964844 151.960938 80.402344 C 149.460938 78.433594 146.402344 77.550781 143.433594 77.761719 C 142.722656 73.71875 140.191406 69.972656 135.851562 66.609375 C 131.640625 63.34375 126.925781 63.703125 123.484375 63.960938 C 122.21875 64.058594 120.90625 64.15625 120.269531 64.003906 C 119.859375 63.898438 118.75 63.242188 117.941406 62.757812 C 114.5625 60.738281 108.898438 57.363281 102.160156 60.476562 C 98.007812 62.402344 95.554688 65.375 94.183594 68.546875 C 84.996094 66.671875 78.761719 71.789062 76.054688 77.300781 C 74.933594 79.574219 74.378906 81.953125 74.238281 84.265625 C 67.453125 84.769531 61.691406 89.640625 60.023438 96.535156 C 58.367188 103.371094 61.363281 109.886719 67.652344 113.132812 C 73.796875 116.304688 78.757812 114.097656 82.742188 112.324219 C 85.777344 110.972656 87.738281 110.175781 89.890625 110.800781 C 93.949219 111.972656 95.390625 114.953125 97.058594 118.402344 C 98.703125 121.796875 100.75 126.027344 105.792969 127.121094 C 111.277344 128.3125 115.515625 125.859375 118.605469 124.074219 C 120.933594 122.730469 122.421875 121.890625 123.710938 122.207031 C 126.535156 122.847656 128.386719 125.210938 130.53125 127.941406 C 133.34375 131.519531 136.839844 135.972656 143.3125 135.996094 C 143.335938 135.996094 143.355469 135.996094 143.378906 135.996094 C 148.503906 135.996094 152.804688 134.402344 155.820312 131.394531 C 158.605469 128.613281 160.160156 124.648438 160.347656 120.195312 Z M 151.273438 120.898438 C 151.839844 121.011719 152.382812 121.007812 152.933594 121.066406 C 152.652344 123.15625 151.871094 124.945312 150.632812 126.183594 C 149 127.8125 146.5625 128.636719 143.382812 128.636719 C 143.367188 128.636719 143.351562 128.636719 143.335938 128.636719 C 140.554688 128.628906 138.933594 126.734375 136.3125 123.394531 C 136.058594 123.074219 135.796875 122.738281 135.527344 122.402344 C 135.601562 122 135.640625 121.582031 135.566406 121.152344 C 135.371094 120 136.292969 118.230469 137.8125 116.839844 C 139.425781 115.363281 141.011719 114.914062 141.632812 115.089844 C 143.609375 115.605469 145.605469 114.4375 146.125 112.472656 C 146.644531 110.507812 145.472656 108.492188 143.511719 107.972656 C 140.15625 107.078125 136.171875 108.367188 132.851562 111.40625 C 131.175781 112.941406 129.925781 114.695312 129.140625 116.511719 C 128.007812 115.871094 126.757812 115.351562 125.339844 115.027344 C 124.480469 114.835938 123.667969 114.785156 122.878906 114.808594 C 122.933594 112.84375 122.667969 110.910156 122.113281 109.097656 C 122.28125 108.988281 122.46875 108.921875 122.625 108.785156 C 126.628906 105.171875 130.164062 104.285156 134.832031 105.71875 C 136.757812 106.3125 138.828125 105.230469 139.425781 103.28125 C 140.023438 101.339844 138.933594 99.28125 136.992188 98.683594 C 134.210938 97.828125 131.59375 97.535156 129.078125 97.792969 C 127.683594 94.753906 127.566406 90.34375 128.972656 87.519531 C 129.875 85.699219 129.136719 83.488281 127.320312 82.582031 C 125.488281 81.671875 123.292969 82.417969 122.390625 84.238281 C 120.121094 88.808594 120.132812 95.125 122.109375 100.085938 C 120.820312 100.824219 119.546875 101.757812 118.285156 102.84375 C 115.65625 100.34375 112.164062 99.042969 108.078125 99.226562 C 106.050781 99.328125 104.484375 101.054688 104.585938 103.085938 C 104.683594 105.113281 106.410156 106.628906 108.4375 106.582031 C 110.914062 106.449219 112.835938 107.292969 114.066406 109.058594 C 115.605469 111.273438 115.882812 114.683594 114.945312 117.691406 C 114.941406 117.695312 114.933594 117.699219 114.929688 117.699219 C 112.316406 119.207031 110.0625 120.519531 107.347656 119.925781 C 105.941406 119.621094 105.1875 118.320312 103.675781 115.191406 C 102.144531 112.03125 100.121094 107.960938 95.71875 105.382812 C 97.132812 103.390625 97.976562 101.207031 98.289062 98.96875 C 101.234375 98.058594 106.296875 96.082031 110.285156 92.265625 C 116.570312 86.253906 115.769531 78.175781 115.734375 77.832031 C 115.515625 75.828125 113.75 74.375 111.714844 74.585938 C 109.710938 74.785156 108.238281 76.585938 108.421875 78.597656 C 108.4375 78.796875 108.816406 83.488281 105.210938 86.941406 C 102.714844 89.328125 99.496094 90.769531 97.214844 91.574219 C 96.460938 89.910156 95.3125 88.136719 93.535156 86.332031 C 92.109375 84.890625 89.78125 84.878906 88.335938 86.308594 C 86.890625 87.738281 86.882812 90.066406 88.308594 91.511719 C 90.222656 93.445312 91.175781 95.386719 91.144531 97.277344 C 91.101562 99.746094 89.40625 101.71875 88.394531 102.671875 C 88.21875 102.84375 88.128906 103.058594 87.992188 103.25 C 84.847656 103.351562 82.09375 104.554688 79.757812 105.59375 C 75.996094 107.273438 73.894531 108.074219 71.019531 106.589844 C 66.3125 104.160156 66.757812 99.960938 67.164062 98.269531 C 67.953125 95.023438 70.855469 91.53125 75.371094 91.527344 C 75.410156 91.527344 75.441406 91.507812 75.480469 91.503906 C 76.429688 93.59375 77.851562 95.378906 79.78125 96.5625 C 80.382812 96.929688 81.042969 97.105469 81.699219 97.105469 C 82.933594 97.105469 84.144531 96.480469 84.835938 95.347656 C 85.894531 93.617188 85.351562 91.347656 83.621094 90.289062 C 81.222656 88.8125 80.777344 84.355469 82.648438 80.554688 C 83.625 78.566406 86.453125 74.535156 92.679688 75.761719 C 92.644531 77.660156 92.867188 79.386719 93.199219 80.707031 C 93.695312 82.671875 95.683594 83.851562 97.640625 83.367188 C 99.601562 82.882812 100.804688 80.890625 100.328125 78.921875 C 100.121094 78.046875 98.472656 70.292969 105.246094 67.160156 C 108.238281 65.773438 110.722656 67.019531 114.179688 69.082031 C 115.648438 69.957031 117.039062 70.785156 118.519531 71.152344 C 120.300781 71.585938 122.203125 71.441406 124.042969 71.300781 C 126.78125 71.097656 129.371094 70.894531 131.351562 72.429688 C 134.4375 74.820312 136.097656 77.238281 136.289062 79.613281 C 136.460938 81.761719 135.429688 84.046875 133.226562 86.410156 C 131.839844 87.894531 131.917969 90.222656 133.402344 91.613281 C 134.113281 92.273438 135.011719 92.605469 135.914062 92.605469 C 136.894531 92.605469 137.875 92.210938 138.597656 91.4375 C 140.367188 89.542969 141.667969 87.546875 142.515625 85.511719 C 144.253906 84.730469 146.175781 85.210938 147.414062 86.1875 C 148.417969 86.980469 149.933594 88.789062 148.828125 92.03125 C 148.097656 94.179688 145.847656 96.277344 145.050781 96.894531 C 143.4375 98.128906 143.128906 100.441406 144.363281 102.054688 C 145.085938 103.003906 146.179688 103.5 147.285156 103.5 C 148.0625 103.5 148.847656 103.253906 149.511719 102.742188 C 149.832031 102.5 151.84375 100.890625 153.613281 98.457031 C 157.351562 97.960938 159.367188 97.953125 161.289062 100.371094 C 163.25 102.84375 163.273438 106.9375 161.34375 110.109375 C 160.273438 111.871094 157.742188 114.675781 152.699219 113.675781 C 150.71875 113.28125 148.777344 114.578125 148.382812 116.574219 C 147.984375 118.566406 149.28125 120.503906 151.273438 120.898438 Z M 151.273438 120.898438" fill="#000000"></path></svg>