<svg viewBox="0 0 320 320" xmlns="http://www.w3.org/2000/svg"><path d="M141.5 1.627c-38.103 5.732-67.723 20.123-93 45.183-73.581 72.95-58.562 195.228 30.5 248.31 80.255 47.833 186.074 15.091 224.996-69.617 25.499-55.495 15.905-125.478-23.169-169.003-2.469-2.75-5.353-6.053-6.408-7.339-11.057-13.478-42.119-32.952-64.846-40.654-16.797-5.692-52.192-9.269-68.073-6.88m7 7.995c-47.736 5.069-88.128 28.541-112.709 65.496-59.755 89.835-10.585 208.656 95.605 231.033 14.488 3.053 42.72 3.053 57.208 0 130.858-27.576 165.402-195.486 55.724-270.863C217.733 17.011 178.324 6.456 148.5 9.622m-6 11.881c-22.038 4.165-41.817 16.775-57.572 36.708l-3.848 4.867 4.519 7.643c18.005 30.455 42.885 45.619 74.901 45.651 32.294.033 56.791-16.779 72.67-49.871l4.141-8.629-5.906-6.031c-18.582-18.98-37.882-28.502-63.502-31.329l-5.596-.618-.654 9.207c-.359 5.063-.66 17.125-.668 26.803-.02 22.499-1.467 25.226-2.34 4.406-.364-8.695-.949-21.323-1.3-28.06L156.708 20l-3.604.09c-1.982.05-6.754.686-10.604 1.413m84 83.975c-44.127 31.67-89.27 32.025-135.523 1.067-4.564-3.056-8.381-5.441-8.48-5.3-2.938 4.149-9.708 19.135-8.792 19.462 9.938 3.544 41.372 26.251 54.319 39.239 17.932 17.988 24.913 40.31 24.958 79.804L153 256h20.854l-.568-12.777c-1.009-22.7 2.715-49.422 9.069-65.058 4.879-12.008 17.505-27.296 33.151-40.142 6.795-5.579 29.562-21.546 31.773-22.283 1.027-.342-9.961-16.751-11.204-16.731-.316.005-4.625 2.916-9.575 6.469m32.211 30.063c-38.363 6.058-66.834 33.441-71.786 69.043-2.613 18.786 3.537 40.163 17.296 60.122 6.795 9.856 6.49 9.683 13.724 7.808 24.475-6.342 48.373-23.49 59.431-42.643l2.672-4.629-23.774-13.29c-34.151-19.091-33.823-19.342 2.654-2.03 17.529 8.319 23.635 10.799 24.246 9.848.449-.698 1.756-3.745 2.904-6.77 8.603-22.675 7.639-46.551-2.903-71.941l-2.724-6.559-6.476-.173c-3.561-.096-10.43.451-15.264 1.214m-216.578 5.892c-11.453 25.891-12.797 51.28-3.907 73.817 1.681 4.262 3.472 7.75 3.979 7.75.987 0 4.418-1.548 23.295-10.51 24.266-11.52 26.706-12.617 27.127-12.197.236.237-2.621 2.07-6.349 4.075C82.55 206.373 74.775 210.707 69 214c-5.775 3.293-13.538 7.621-17.25 9.617-7.87 4.233-7.87 4.234-3.082 11.396 8.885 13.291 21.775 24.562 36.153 31.612 9.641 4.728 22.838 9.375 26.622 9.375 4.696 0 17.843-21.187 23.269-37.5 3.809-11.447 4.003-32.442.398-43-11.956-35.021-40.912-56.152-79.75-58.199l-11.14-.587-2.087 4.719" stroke="#ef562d" fill-rule="evenodd" fill="#ef562d"></path><path d="M146 1.639c-1.375.202-5.875.85-10 1.44C74.501 11.873 22.194 59.024 7.001 119.364-22.719 237.394 83.148 341.963 201.5 311.48c47.887-12.334 89.058-49.977 106.894-97.736 12.003-32.141 12.69-69.897 1.897-104.244-15.469-49.224-59.939-90.655-111.07-103.481C182.902 1.926 158.006-.123 146 1.639m-9.382 9.006C76.747 19.299 28.384 64.782 12.894 127c-3.209 12.89-3.523 48.631-.54 61.5 17.294 74.607 78.177 122.586 152.522 120.196 70.472-2.266 126.335-49.296 142.77-120.196 3.152-13.601 2.691-48.675-.823-62.51C286.86 47.379 215.772-.796 136.618 10.645m94.882 91.7c-5.649 4.669-20.567 13.567-30 17.894-35.487 16.278-71.525 12.082-109.789-12.783-4.834-3.141-8.922-5.541-9.085-5.334-.163.208-2.397 4.274-4.963 9.035l-4.667 8.657 6.752 3.709c27.986 15.371 54.784 38.916 62.623 55.024 7.334 15.069 10.942 35.2 11.059 61.703l.07 15.75 10-.002 10-.001.019-22.248c.041-48.343 9.151-69.124 42.34-96.583 6.429-5.319 21.503-15.776 28.385-19.69l3.744-2.129-5.744-8.157c-6.675-9.478-5.681-9.03-10.744-4.845" stroke-width="3" stroke="#0a532c" fill-rule="evenodd" fill="#0a532c"></path></svg>