<svg viewBox="0 0 320 320" xmlns="http://www.w3.org/2000/svg">

<path fill-rule="evenodd" d="M152 .636C52.466 7.878-15.928 97.354 4.95 193.014c22.832 104.613 142.548 156.988 235.2 102.9 96.189-56.153 105.699-191.471 18.35-261.093C229.495 11.702 187.069-1.916 152 .636m-15.383 10.893C15.721 31.831-31.713 177.98 54.497 264.548c49.409 49.614 127.714 57.97 186.676 19.92C321.386 232.705 332.939 120.316 264.967 53c-33.63-33.306-82.652-49.145-128.35-41.471M144 20.498c-19.698 3.397-34.769 11.426-49.292 26.261-15.29 15.62-14.932 14.893-11.085 22.483 10.24 20.208 30.997 37.871 52.484 44.659 38.769 12.248 76.207-5.007 96.522-44.488 5.798-11.267 5.731-11.817-2.379-19.68-19.523-18.928-42.146-29.686-62.5-29.721L161 20l-.117 11.25c-.064 6.188-.408 14.175-.764 17.75-.636 6.4-.658 6.323-1.378-5-.403-6.325-.734-14.26-.736-17.633-.006-8.044-.41-8.213-14.005-5.869m86 81.9c-31.455 24.611-68.292 32.6-101.424 21.996-13.567-4.342-38.822-17.37-42.677-22.016-.629-.758-1.725-1.378-2.435-1.378-1.154 0-12.104 18.821-11.295 19.414.182.133 3.481 1.946 7.331 4.029 26.93 14.565 53.938 37.981 61.773 53.557 7.587 15.083 12.334 42.908 11.571 67.825l-.344 11.238 10.7-.281 10.7-.282.452-24.5c.5-27.117 1.925-36.699 7.715-51.861 7.451-19.512 30.368-42.588 60.683-61.104 2.887-1.764 5.25-3.654 5.25-4.202 0-1.108-11.211-16.75-12-16.743-.275.002-2.975 1.941-6 4.308m22.5 33.634c-51.331 10.784-79.707 61.39-60.517 107.926 4.864 11.795 16.468 29.869 19.362 30.157 7.319.73 32.357-9.921 43.526-18.516 11.168-8.593 27.519-28.727 25.105-30.911-.262-.237-7.451-4.383-15.976-9.214-8.525-4.831-15.923-9.159-16.44-9.619-.517-.459 6.779 2.76 16.214 7.155 9.435 4.394 17.613 7.99 18.174 7.99 1.552 0 5.751-8.95 8.053-17.161 5.392-19.24 2.936-42.518-6.867-65.089l-2.063-4.75-9.785.07c-5.474.04-13.752.904-18.786 1.962m-209.765 2.25c-1.966 3-7.205 18.436-9.174 27.03-2.28 9.948-2.068 28.438.45 39.234 1.996 8.56 6.554 19.454 8.14 19.454.455 0 7.393-3.15 15.419-7 14.658-7.032 20.818-9.208 12.43-4.392-4.363 2.505-6.509 3.709-19.75 11.083-7.484 4.168-7.435 3.756-1.512 12.675 11.097 16.709 30.165 30.683 51.262 37.569 12.76 4.164 13.055 4.119 18.306-2.785 33.787-44.427 23.935-98.839-22.454-124.01-16.874-9.156-49.371-14.576-53.117-8.858" stroke="#fbfbfa" fill="#fbfbfa"></path>

<path fill-rule="evenodd" d="M141.5 1.627c-38.103 5.732-67.723 20.123-93 45.183-73.581 72.95-58.562 195.228 30.5 248.31 80.255 47.833 186.074 15.091 224.996-69.617 25.499-55.495 15.905-125.478-23.169-169.003-2.469-2.75-5.353-6.053-6.408-7.339-11.057-13.478-42.119-32.952-64.846-40.654-16.797-5.692-52.192-9.269-68.073-6.88m7 7.995c-47.736 5.069-88.128 28.541-112.709 65.496-59.755 89.835-10.585 208.656 95.605 231.033 14.488 3.053 42.72 3.053 57.208 0 130.858-27.576 165.402-195.486 55.724-270.863C217.733 17.011 178.324 6.456 148.5 9.622m-6 11.881c-22.038 4.165-41.817 16.775-57.572 36.708l-3.848 4.867 4.519 7.643c18.005 30.455 42.885 45.619 74.901 45.651 32.294.033 56.791-16.779 72.67-49.871l4.141-8.629-5.906-6.031c-18.582-18.98-37.882-28.502-63.502-31.329l-5.596-.618-.654 9.207c-.359 5.063-.66 17.125-.668 26.803-.02 22.499-1.467 25.226-2.34 4.406-.364-8.695-.949-21.323-1.3-28.06L156.708 20l-3.604.09c-1.982.05-6.754.686-10.604 1.413m84 83.975c-44.127 31.67-89.27 32.025-135.523 1.067-4.564-3.056-8.381-5.441-8.48-5.3-2.938 4.149-9.708 19.135-8.792 19.462 9.938 3.544 41.372 26.251 54.319 39.239 17.932 17.988 24.913 40.31 24.958 79.804L153 256h20.854l-.568-12.777c-1.009-22.7 2.715-49.422 9.069-65.058 4.879-12.008 17.505-27.296 33.151-40.142 6.795-5.579 29.562-21.546 31.773-22.283 1.027-.342-9.961-16.751-11.204-16.731-.316.005-4.625 2.916-9.575 6.469m32.211 30.063c-38.363 6.058-66.834 33.441-71.786 69.043-2.613 18.786 3.537 40.163 17.296 60.122 6.795 9.856 6.49 9.683 13.724 7.808 24.475-6.342 48.373-23.49 59.431-42.643l2.672-4.629-23.774-13.29c-34.151-19.091-33.823-19.342 2.654-2.03 17.529 8.319 23.635 10.799 24.246 9.848.449-.698 1.756-3.745 2.904-6.77 8.603-22.675 7.639-46.551-2.903-71.941l-2.724-6.559-6.476-.173c-3.561-.096-10.43.451-15.264 1.214m-216.578 5.892c-11.453 25.891-12.797 51.28-3.907 73.817 1.681 4.262 3.472 7.75 3.979 7.75.987 0 4.418-1.548 23.295-10.51 24.266-11.52 26.706-12.617 27.127-12.197.236.237-2.621 2.07-6.349 4.075C82.55 206.373 74.775 210.707 69 214c-5.775 3.293-13.538 7.621-17.25 9.617-7.87 4.233-7.87 4.234-3.082 11.396 8.885 13.291 21.775 24.562 36.153 31.612 9.641 4.728 22.838 9.375 26.622 9.375 4.696 0 17.843-21.187 23.269-37.5 3.809-11.447 4.003-32.442.398-43-11.956-35.021-40.912-56.152-79.75-58.199l-11.14-.587-2.087 4.719" stroke="#ef562d" fill="#ef562d"></path>

<path fill-rule="evenodd" d="M146 1.639c-1.375.202-5.875.85-10 1.44C74.501 11.873 22.194 59.024 7.001 119.364-22.719 237.394 83.148 341.963 201.5 311.48c47.887-12.334 89.058-49.977 106.894-97.736 12.003-32.141 12.69-69.897 1.897-104.244-15.469-49.224-59.939-90.655-111.07-103.481C182.902 1.926 158.006-.123 146 1.639m-9.382 9.006C76.747 19.299 28.384 64.782 12.894 127c-3.209 12.89-3.523 48.631-.54 61.5 17.294 74.607 78.177 122.586 152.522 120.196 70.472-2.266 126.335-49.296 142.77-120.196 3.152-13.601 2.691-48.675-.823-62.51C286.86 47.379 215.772-.796 136.618 10.645m94.882 91.7c-5.649 4.669-20.567 13.567-30 17.894-35.487 16.278-71.525 12.082-109.789-12.783-4.834-3.141-8.922-5.541-9.085-5.334-.163.208-2.397 4.274-4.963 9.035l-4.667 8.657 6.752 3.709c27.986 15.371 54.784 38.916 62.623 55.024 7.334 15.069 10.942 35.2 11.059 61.703l.07 15.75 10-.002 10-.001.019-22.248c.041-48.343 9.151-69.124 42.34-96.583 6.429-5.319 21.503-15.776 28.385-19.69l3.744-2.129-5.744-8.157c-6.675-9.478-5.681-9.03-10.744-4.845" stroke="#0a532c" fill="#0a532c"></path>

</svg>